<svg id="Calque_17" data-name="Calque 17" xmlns="http://www.w3.org/2000/svg" viewBox="0 0 1821.06 1821.06"><defs><style>.cls-1{fill:none;stroke:#999b3c;stroke-miterlimit:10;stroke-width:15px;}</style></defs><title>cadre-pp</title><polygon class="cls-1" points="75.23 358.88 42.82 358.88 42.82 42.82 358.88 42.82 358.88 75.23 1587.75 75.23 1587.75 75.23 1655.53 7.5 7.5 7.5 7.5 1655.53 75.23 1587.8 75.23 358.88"/><polygon class="cls-1" points="1813.56 165.53 1750.24 228.85 1745.83 233.09 1745.83 1462.46 1778.52 1462.46 1778.52 1778.52 1462.46 1778.52 1462.46 1745.83 233.26 1745.83 165.53 1813.56 1813.56 1813.56 1813.56 165.53"/><line class="cls-1" x1="1745.83" y1="1462.46" x2="1745.83" y2="224.45"/><line class="cls-1" x1="233.26" y1="1745.83" x2="1462.46" y2="1745.83"/><polyline class="cls-1" points="75.23 358.88 75.23 1587.8 75.23 1587.8"/><line class="cls-1" x1="1596.61" y1="75.23" x2="358.88" y2="75.23"/><polyline class="cls-1" points="1745.83 224.45 1745.62 197.48 1813.56 129.54 1813.56 7.5 1692.17 7.5 1622.61 75.19 1596.61 75.23"/><polyline class="cls-1" points="1462.46 1745.83 1462.46 1778.52 1778.52 1778.52 1778.52 1462.46 1745.83 1462.46"/><polyline class="cls-1" points="358.88 75.23 358.88 42.82 42.82 42.82 42.82 358.88 75.23 358.88"/><path class="cls-1" d="M582,2094.6c.07,11.3-.07,27.18,0,38.48l-67.73,66.15v121.12H635.72l69.07-67.73h35.26" transform="translate(-506.79 -506.79)"/><path class="cls-1" d="M514.29,2191.31" transform="translate(-506.79 -506.79)"/></svg>